<?xml version="1.0" encoding="UTF-8"?>
<svg id="Layer_2" data-name="Layer 2" xmlns="http://www.w3.org/2000/svg" viewBox="0 0 147.79 384">
  <g id="Layer_1-2" data-name="Layer 1">
    <g>
      <path d="M68.21,0c8.56,2.35,13.13,8.6,14.26,17.25,7.11-2.31,15.88.28,20.12,6.49.73,1.07,3.12,5.78,3.12,6.63v72.38l11.67-23.95c11.83-11.72,31.34-4.1,30.37,13.1-.2,3.55-2.29,7.28-3.65,10.61-5.74,14-24.78,60.46-33.48,69.27-1.91,1.94-9.08,6.1-9.41,7.84l.04,197.29c.02,2.93-1.47,5.43-3.79,7.09h-3.75c-1.5-1.53-3.88-2.3-3.79-4.84l.08-205.49c.66-4.21,6.43-5.01,9.72-7.53,3.02-2.31,5.95-6.16,7.76-9.49,7.52-20.7,20.71-41.63,27.83-62.17,1.44-4.14,1.89-8-3.04-9.74-6.09-2.15-8.23,5.12-10.2,9.24-4.98,10.41-8.57,21.64-13.78,31.97-2.09,2.25-9.32,1.76-12.62,2.38-7.58,1.41-15.21,4.98-18.08,12.67-1.98,5.29.04,14.95-8.64,13.15-6.41-1.33-3.51-12.45-1.86-16.9,4.15-11.24,15.34-19.67,27.36-20.26l-.33-85.53c-2.22-5.07-9.13-5.05-11.33,0l-.38,57.37c-.87,5.48-7.52,6.9-10.65,2.49l-.6-74.4c-3.07-9.27-13-6.37-12.73,2.93v70.51c-3.33,6.5-11.6,3.4-11.21-3.75l-.17-55.33c-4.5-6.28-11.18-4.15-11.88,3.56-1.9,20.77,2.41,45.64.06,66.05-.82,7.08-10.02,6.59-11.09.56-2.12-12.02,1.67-28.95-.22-41.03-1.04-6.63-10.87-6.64-11.91,0l-.2,44.05c-2.2,4.91-10.15,5.1-11.05-.64.88-14-1.33-29.7-.08-43.48,1.08-11.86,12.09-18.48,23.28-15.34v-13.88c0-.33,1.27-3.71,1.58-4.42,3.78-8.61,13.61-12.02,22.42-9.46-.36-8.73,5.44-14.98,13.5-17.25h6.75Z"/>
      <path d="M20.97,179.62c-.32-1.69-5.29-4.1-7.11-5.64C1.53,163.48-1.68,145.79.76,130.17c.99-6.35,9.74-6.47,11.05-.63,1.18,5.27-.43,13.44.24,19.26s4.26,12.47,8.56,16.19c2.88,2.49,9.92,4.94,11.04,7.71l.61,204.97c.24,3.09-1.57,4.67-3.79,6.34h-3.75c-2.22-1.67-4.02-3.25-3.79-6.34"/>
    </g>
  </g>
</svg>