<?xml version="1.0" encoding="UTF-8"?>
<svg id="Layer_2" data-name="Layer 2" xmlns="http://www.w3.org/2000/svg" viewBox="0 0 122.76 277.85">
  <g id="Layer_1-2" data-name="Layer 1">
    <g>
      <path d="M24.51,277.85c-2.64-1.71-3.8-3.88-3.78-7.1l.06-92.9c-11.99-6.44-19.23-18.04-20.27-31.63-1.62-21.05,1.21-44.01-.04-65.27,1.1-12.74,11.71-19.64,24.02-16.09,1.94-8.49,9.93-14.68,18.76-13.51-1-10.32-5.2-21.8-5.9-31.97-1.47-21.33,27.79-27.64,34.18-5.69,3.17,10.9,4.02,24.15,6.23,35.4,1.14,0,1.39-2.25,1.69-3.17,3.07-9.27,7.77-34.61,13.89-40.33,10.15-9.5,25.88-4,29.41,9v6.75l-15.75,53.99c6.84,1.07,13.08,7.24,14.06,14.08-2.21,22.28,6.18,56.89-6.08,76.03-3.86,6.02-8.38,8.84-13.83,13.17-1.45,7.38,1.59,20.64-.48,27.27-1.54,4.93-8.84,4.88-10.58,0,.24-9.95-1.48-22.22-.35-31.93.59-5.04,5.94-5.45,9.7-8.3,18.96-14.37,7.36-51.6,10.6-72.72-.05-5.06-3.42-6.62-7.92-7.08-8.68-.88-24.92-.69-33.77-.04-1.85.13-4.06.23-5.77.98-5.33,2.35-4.9,9.94.91,11.44,7.95,2.06,21.1-.93,29.6.4,2.6.41,4.47,2.29,4.88,4.88.55,3.55.54,19.33-1.43,21.73-1.58,1.92-7.95,3.1-10.78,4.97-4.53,3.01-7.92,8.05-9.16,13.34-.72,3.06.48,6.86-2.4,9.05-3.51,2.67-8.43,1.07-9.14-3.43-1.99-12.55,9.77-28.24,21.58-31.95l.12-7.38h-23.62c-2.99,0-8.51-4.25-9.87-4.38-.61-.06-7.18,4.18-11.24,4.32-6.04.22-9.33-3.91-12.02-4.33-.68-.11-4.69,2.73-6.25,3.25-4.33,1.44-7.61.93-11.99.38,1.9,18.27-6.36,44.37,11,56.87,3.41,2.46,8.53,2.95,9.2,7.3l-.65,102.01-3.06,2.57h-3.75ZM71.01,74.6l-10.52-58.86c-2.57-6.83-12.17-5.31-12.01,2.19,2.91,12.74,4.27,25.96,7.12,38.7,1.47,6.55,5.05,11.83,3.41,19.47l12-1.5ZM95.76,74.6l15.71-55.98c.41-7.39-9.33-8.87-12.01-2.19l-16.45,58.17h12.75ZM39.29,62.76c-2.11.48-3.16,1.94-3.49,4.01-.76,4.85-.65,21.13-.06,26.22.88,7.67,10.52,6.55,11.86.58.82-3.66.63-20.39.16-24.59-.57-4.99-3.29-7.39-8.46-6.22ZM16.05,75.51c-5.49,1.22-4.84,12.23-4.22,16.65,1.07,7.66,10.19,8.74,12.17,1.05,1.67-6.51,1.91-19.9-7.95-17.7Z"/>
      <path d="M97.26,277.85h-3.75c-2.24-1.72-3.41-2.62-3.77-5.61-.95-8.05-.96-30.99,0-39.03.92-7.74,10.37-7.74,11.28,0,.96,8.04.95,30.99,0,39.03-.35,2.98-1.52,3.89-3.77,5.61Z"/>
    </g>
  </g>
</svg>