<?xml version="1.0" encoding="UTF-8"?>
<svg id="Layer_2" data-name="Layer 2" xmlns="http://www.w3.org/2000/svg" viewBox="0 0 121.64 196.8">
  <g id="Layer_1-2" data-name="Layer 1">
    <path d="M0,26.55c3.2-10.77,13.13-16,23.99-12.75C25.96,3.53,35.11-1.24,45.19.48c2.64.45,6.19,3.56,7.56,3.42s4.26-2.95,7.05-3.42c3.73-.64,7.92-.39,11.43.96,1.47.57,3.96,2.61,4.89,2.61,1.21,0,4.81-3.15,6.92-3.58,15.28-3.1,24.27,9.63,21.99,23.8,9.21.51,14.99,8.18,15.74,16.88,1.23,14.22,1.07,39.69-.04,54.02-1.05,13.59-8.28,25.19-20.27,31.63l.03,63.62c-.36,3.11-1.15,4.64-3.75,6.38h-3.75l-3.06-2.57-.65-72.01c.67-4.35,5.79-4.84,9.2-7.3,19.12-13.78,8.22-53.53,10.83-74.32-.74-4.09-3.22-5.26-7.03-5.72-8.42-1.01-27.33-.87-35.94-.12-4.83.42-8.28,1.68-7.89,7.14.21,2.92,1.69,4.64,4.5,5.31,8.27,1.97,20.99-.98,29.63.37,2.44.38,3.74,1.66,4.12,4.12.59,3.74.52,15.57.06,19.47-.68,5.75-5.46,4.5-9.8,6.7-4.62,2.34-9.1,7.72-10.5,12.75-1.1,3.95.02,11.37-5.75,12.28-9.89,1.55-5.67-14.84-3.36-19.89,3.58-7.85,10.21-13.04,17.78-16.72l.37-7.51h-22.88c-3.62,0-8.25-4.13-9.89-4.38-.63-.1-7.65,4.37-11.86,4.37s-11.22-4.43-11.88-4.37c-1.13.1-2.85,1.98-4.24,2.51-4.63,1.76-8.82,2.71-13.5.37v40.88c0,5,6.62,13.44,10.57,16.43,3.24,2.46,9,3.59,9.64,7.61l.06,68.97c.02,2.76-1.85,4.07-3.77,5.61h-3.75c-1.92-1.54-3.78-2.85-3.77-5.61l-.13-63.62c-.37-1.23-7.56-5.52-9.27-7.23-5.6-5.61-8.77-13.53-10.84-21.04V26.55ZM38.79,11.71c-2.76.61-3.86,2.93-4.22,5.53-.68,4.87-.63,18.2-.07,23.18,1.02,9.05,11.09,9.44,12.57.57.76-4.54.71-17.6.18-22.32-.58-5.24-2.84-8.21-8.46-6.96ZM70.5,23.55c.16-5.27.73-12.07-6.38-12.07-7.88,0-5.23,8.12-5.62,13.57l12-1.5ZM93.75,23.55c2.82-16.45-14.82-16.45-12,0h12ZM14.78,24.46c-4.57,1.36-4.1,13.55-3.48,17.42,1.03,6.49,9.89,7.27,11.63,1.96.61-1.86.71-13.32.31-15.4-.69-3.62-5.23-4.94-8.46-3.98Z"/>
  </g>
</svg>